<svg xmlns="http://www.w3.org/2000/svg" viewBox="0 0 100 100" width="100" height="100">
  <defs>
    <linearGradient id="globeGradient" x1="0%" y1="0%" x2="100%" y2="100%">
      <stop offset="0%" style="stop-color:#00e5ff;stop-opacity:1" />
      <stop offset="100%" style="stop-color:#0066ff;stop-opacity:1" />
    </linearGradient>
  </defs>

  <!-- Globe circle -->
  <circle cx="50" cy="50" r="45" fill="url(#globeGradient)" stroke="#003d66" stroke-width="2"/>

  <!-- Latitude lines -->
  <ellipse cx="50" cy="50" rx="45" ry="15" fill="none" stroke="#ffffff" stroke-width="1" opacity="0.4"/>
  <ellipse cx="50" cy="50" rx="45" ry="30" fill="none" stroke="#ffffff" stroke-width="1" opacity="0.4"/>

  <!-- Longitude lines -->
  <ellipse cx="50" cy="50" rx="15" ry="45" fill="none" stroke="#ffffff" stroke-width="1" opacity="0.4"/>
  <ellipse cx="50" cy="50" rx="30" ry="45" fill="none" stroke="#ffffff" stroke-width="1" opacity="0.4"/>
  <line x1="50" y1="5" x2="50" y2="95" stroke="#ffffff" stroke-width="1" opacity="0.4"/>

  <!-- Continents (simplified) -->
  <path d="M 30 35 Q 35 30 40 35 L 45 40 L 50 38 L 55 42 Q 58 45 55 48 L 52 50 Q 50 52 48 50 L 42 48 Q 38 46 35 48 L 30 45 Z"
        fill="#ffffff" opacity="0.7"/>
  <path d="M 60 25 L 65 28 L 70 26 Q 73 28 70 32 L 68 36 L 63 35 Q 60 33 60 30 Z"
        fill="#ffffff" opacity="0.7"/>
  <path d="M 25 55 Q 28 52 32 55 L 35 60 L 38 62 Q 40 65 37 68 L 32 70 Q 28 68 25 65 Z"
        fill="#ffffff" opacity="0.7"/>
</svg>
